<svg width="1254" height="1254" viewBox="0 0 1254 1254" fill="none" xmlns="http://www.w3.org/2000/svg">
<g clip-path="url(#clip0_4027_145)">
<rect width="1254" height="1254" rx="627" fill="#043F9B"/>
<path d="M0 627V0H627H1254V627V1254H627H0V627ZM580.1 962.79C590.39 944.79 600.55 927.15 602.63 923.72L606.43 917.23H542.63H478.83V913.19C478.83 910.13 480.3 907.43 484.46 902.41C497.81 886.86 513.48 870.69 530.75 854.9C547.89 839.22 552.79 834.94 574.59 817.18C585.12 808.61 596.27 800.4 608.02 792.69C613.41 789.14 619.78 784.85 622.1 783.02C629.94 777.26 639.73 771.26 646.96 767.71C650.88 765.87 655.16 763.42 656.39 762.32C658.72 760.24 663.98 757.18 676.84 750.81C685.41 746.52 686.39 746.03 695.33 741.26C698.27 739.67 701.09 738.44 701.82 738.44C702.43 738.44 709.78 735.13 717.98 731.21C726.18 727.17 736.84 722.76 741.49 721.29C751.78 717.98 753.37 717.49 760.59 714.06C763.65 712.71 766.96 711.49 767.94 711.49C770.14 711.49 778.47 708.55 779.57 707.45C780.06 706.96 781.9 706.59 783.73 706.59C785.44 706.59 789.24 705.49 792.06 704.14C794.75 702.79 797.69 701.69 798.43 701.69C799.16 701.69 802.35 700.96 805.53 699.98C817.04 696.55 839.7 690.67 848.64 688.71C853.66 687.73 862.23 685.77 867.62 684.55C876.19 682.59 899.83 678.55 923.95 674.88C930.32 674.02 928.85 673.78 913.54 673.78C856.6 673.41 784.71 682.11 727.4 696.31C597.47 728.64 489.7 782.89 410.84 855.75C370.67 892.98 342.02 932.78 320.34 981.88C317.16 988.74 314.71 994.74 314.71 994.98C314.71 995.35 370.18 995.59 438.15 995.59L561.47 995.47L580.08 962.77L580.1 962.79ZM1028.18 985.57C1025.85 980.67 1009.81 947.48 992.54 911.73C975.15 876.09 956.78 838.01 951.52 827.23C946.25 816.45 936.58 796.61 930.09 783.14C923.48 769.67 912.33 746.77 905.35 732.32C896.53 714.07 892 705.87 890.53 705.62C886.12 704.89 817.18 724.6 812.15 728.03C812.03 728.15 825.87 757.91 843.01 794.28C860.03 830.53 884.65 882.94 897.63 910.5C910.49 938.18 924.69 968.3 929.22 977.61L937.18 994.39H984.69H1032.2L1028.16 985.57H1028.18ZM344.85 867.64C356.73 852.82 389.18 819.76 398.37 813.14L404.13 809.1V743.09V677.21L470.26 676.97L536.51 676.6L557.21 637.41L577.78 598.22L490.96 597.85L404.14 597.61V533.32V469.03H507.37H610.48L633.87 426.78L657.38 384.53H487.53C357.11 384.53 317.31 384.9 316.21 386C315.11 387.1 314.74 447.23 314.74 648.8V910.13L324.41 895.68C329.8 887.6 338.98 875.11 344.86 867.64H344.85ZM616.35 866.17C620.76 857.48 628.84 842.29 634.23 832.25C639.62 822.09 643.78 813.64 643.54 813.39C642.81 812.53 610.84 836.78 596.64 849.03C589.78 854.91 579.01 864.71 572.76 870.71L561.49 881.61L585 881.73H608.51L616.35 866.18V866.17ZM580.22 710.28C582.91 708.93 586.34 707.83 587.57 707.83C588.92 707.83 592.1 706.97 594.67 705.75C601.41 702.93 629.2 693.26 634.35 691.91C636.68 691.3 641.09 689.95 644.15 688.85C647.21 687.75 654.31 685.42 660.07 683.71C665.7 682.12 670.97 680.28 671.7 679.67C672.31 679.18 673.9 678.57 675.13 678.32C677.46 677.83 678.68 675.5 714.44 605.95L729.99 575.58H736.48H742.85L762.32 616.36C772.97 638.65 781.91 657.26 782.16 657.51C782.4 657.88 793.43 657.14 806.77 655.92C820 654.7 838.73 653.1 848.41 652.37L865.92 650.9L828.32 574.97C807.75 533.21 779.21 475.65 765.13 447L739.54 395.08L731.21 410.88C713.7 444.43 611.2 641.84 594.91 673.56C588.79 685.32 581.68 699.03 578.99 703.93C576.3 708.71 574.34 712.75 574.58 712.75C574.95 712.75 577.4 711.65 580.21 710.3L580.22 710.28ZM843.76 400.82C843.76 389.43 841.92 378.78 837.64 364.69C833.23 350.61 833.11 346.57 836.54 343.38C838.01 342.16 839.85 339.58 840.83 337.75C842.54 334.57 842.3 334.08 838.26 329.55L833.97 324.77L834.21 296.24C834.58 268.69 834.7 267.58 837.03 267.22C838.38 266.98 841.93 265.63 844.99 264.16C848.05 262.81 852.09 261.34 854.05 260.98C856.01 260.49 857.85 259.63 858.09 258.9C858.33 258.29 840.95 250.94 819.64 242.61C798.21 234.28 751.8 216.16 716.65 202.44C644.64 174.4 651.38 175.99 633.13 183.09C627.37 185.42 609.01 192.52 592.11 199.01C575.33 205.5 555.49 213.22 548.02 216.15C540.67 219.09 529.28 223.5 522.92 225.82C516.55 228.15 503.33 233.17 493.53 236.96C483.73 240.76 469.53 246.39 461.81 249.33C454.09 252.39 446.01 255.82 443.81 256.92L439.77 259L480.3 274.19C510.06 285.21 521.45 289.01 522.79 288.15C523.89 287.54 528.06 285.09 532.1 282.88C536.14 280.68 540.3 278.35 541.28 277.74C542.26 277.25 545.32 276.03 548.02 275.05C550.71 274.07 555.98 272.11 559.65 270.64C563.32 269.17 569.2 267.21 572.51 266.35C575.94 265.49 580.35 264.15 582.31 263.29C592.96 259 611.7 256.92 643.54 256.31C672.07 255.82 677.09 255.94 690.69 258.27C715.06 262.43 749.47 275.05 766.62 286.19L772.13 289.74L791.11 283.25C801.52 279.7 812.05 275.78 814.38 274.68C816.71 273.58 821.24 272.48 824.54 272.11L830.3 271.5V299.18C830.3 325.26 830.18 326.86 827.97 327.59C824.66 328.57 821.48 333.96 822.34 336.77C822.71 338.12 824.67 340.44 826.75 342.16C831.28 346.08 831.28 348.28 826.14 365.43C821.98 379.02 818.18 403.27 819.65 407.07C820.26 408.66 822.71 409.03 832.14 409.03H843.77V400.83L843.76 400.82ZM552.92 351.71C554.39 350.49 558.06 348.77 561 347.91C563.94 347.05 567.37 345.83 568.47 345.22C569.69 344.61 572.27 344.12 574.1 344.12C576.06 344.12 578.02 343.75 578.51 343.26C580.22 341.55 588.8 339.22 598.23 337.99C603.62 337.26 611.7 336.03 616.11 335.3C629.09 333.22 675.01 334.69 691.42 337.87C709.3 341.18 724.24 345.59 736.12 351.1C749.96 357.35 749.59 357.96 749.22 328.93L748.85 305.66L743.95 302.84C735.87 298.31 715.42 290.59 702.31 287.29C652.22 274.8 596.75 279.57 552.17 300.27L541.27 305.29V329.41C541.27 342.64 541.64 353.9 542.13 354.39C543.6 355.74 549.72 354.27 552.91 351.7L552.92 351.71Z" fill="#043F9B"/>
<path d="M308.6 998.06C308.6 995.73 321.21 967.69 328.93 952.87C347.91 916.38 374 882.82 407.18 852.08C486.04 779.22 593.81 724.97 723.74 692.64C769.05 681.37 820.36 673.9 871.92 671.09C895.31 669.74 943.07 669.5 952.5 670.72C960.7 671.7 960.22 673.9 951.4 675.01C944.66 675.87 915.27 680.4 893.35 683.95C886.61 685.05 876.7 687.01 871.31 688.24C865.92 689.46 857.35 691.42 852.33 692.4C843.39 694.36 820.74 700.24 809.22 703.67C806.04 704.65 802.85 705.38 802.12 705.38C801.39 705.38 798.45 706.48 795.75 707.83C792.93 709.18 789.14 710.28 787.42 710.28C785.58 710.28 783.75 710.65 783.26 711.14C782.16 712.24 773.83 715.18 771.63 715.18C770.65 715.18 767.34 716.4 764.28 717.75C757.05 721.18 755.46 721.67 745.18 724.98C740.53 726.45 729.87 730.86 721.67 734.9C713.47 738.82 706.12 742.13 705.51 742.13C704.78 742.13 701.96 743.35 699.02 744.95C690.08 749.73 689.1 750.22 680.53 754.5C667.67 760.87 662.41 763.93 660.08 766.01C658.86 767.11 654.57 769.56 650.65 771.4C643.42 774.95 633.63 780.95 625.79 786.71C623.46 788.55 617.1 792.83 611.71 796.38C606.32 799.93 598.36 805.44 593.95 808.75C586.36 814.26 581.95 817.81 561.74 834.47C537.86 853.94 493.41 897.9 484.22 910.89L482.38 913.58H548.51H614.52L601.78 935.38C594.68 947.26 583.53 966.61 577.04 978.12L565.16 999.31H436.94C354.52 999.31 308.6 998.94 308.6 998.09V998.06Z" fill="white"/>
<path d="M311.049 654.43C311.049 427.88 311.289 383.42 312.759 382.2C313.979 381.22 361.129 380.98 489.589 381.1L664.829 381.47L639.479 427.03L614.129 472.71H511.019H407.789V533.33V593.95H496.569C545.429 593.95 585.349 594.32 585.349 594.68C585.349 595.05 582.169 601.17 578.119 608.4C574.199 615.63 564.039 634.85 555.459 651.26L539.779 680.9H473.769H407.759V746.78V812.79L402.619 816.46C394.049 822.58 370.659 845.48 358.659 859.32C344.699 875.48 332.699 891.77 322.659 907.81C318.369 914.67 313.969 921.4 312.989 922.75C311.399 924.95 311.149 895.56 311.029 654.44L311.049 654.43Z" fill="white"/>
<path d="M478.09 278.48C453.97 269.42 432.78 261.46 431.06 260.72L428 259.37L430.94 257.41C432.65 256.31 435.59 254.72 437.68 253.98C439.76 253.12 448.33 249.82 456.78 246.39C481.15 236.59 506.62 226.67 519.24 222.14C525.61 219.81 537 215.4 544.34 212.47C551.81 209.53 571.65 201.82 588.43 195.33C605.33 188.84 623.82 181.61 629.7 179.29C635.95 176.84 643.66 174.76 648.07 174.39L655.79 173.66L717.02 197.54C750.7 210.64 796.74 228.52 819.27 237.34C869.48 256.93 872.3 258.04 871.32 259.63C870.95 260.24 868.75 261.1 866.42 261.59C863.97 261.96 861.77 262.81 861.4 263.43C861.03 264.04 859.69 264.53 858.46 264.53C857.11 264.53 853.19 265.88 849.64 267.47C846.09 269.06 842.05 270.65 840.7 270.9C839.35 271.14 838.13 272.37 837.88 273.72C837.64 275.43 835.8 276.9 832.12 278.13C826.85 280.09 826.61 280.09 826.61 277.76C826.61 275.07 825.02 275.31 816.2 279.23C813.51 280.45 807.51 282.66 802.73 284.13C798.08 285.72 789.01 288.78 782.77 291.11L771.5 295.27L762.56 289.76C743.09 277.64 712.11 266.25 686.88 261.96C659.69 257.31 602.99 260.12 585.97 266.98C584.01 267.84 579.6 269.18 576.17 270.04C572.86 270.9 566.99 272.86 563.31 274.33C559.64 275.8 554.13 277.88 551.06 278.98C548 279.96 543.47 282.16 541.02 283.76C538.45 285.35 536.12 286.58 535.75 286.58C535.38 286.58 532.08 288.42 528.52 290.74L522.15 294.78L478.06 278.49L478.09 278.48Z" fill="white"/>
<path d="M984.46 998.42L933.52 998.05L925.44 981.15C921.03 971.97 906.83 941.84 893.97 914.16C880.99 886.61 856.86 835.3 840.33 800.27C803.71 722.51 805.55 726.67 807.39 725.2C812.53 721.28 875.23 702.91 889.68 701.08L895.8 700.35L902.54 714.8C906.21 722.76 917.6 746.39 927.77 767.21C937.93 788.15 951.4 815.7 957.65 828.44C1016.31 949.55 1038.35 995.48 1038.72 996.82C1039.21 998.9 1044.48 998.78 984.47 998.41L984.46 998.42Z" fill="#04B09A"/>
<path d="M552.3 884.29C552.3 882.82 577.53 858.7 592.1 846.08C615.98 825.63 648.31 802.12 652.6 802.12C653.95 802.12 655.17 802.24 655.17 802.49C655.17 802.61 650.88 811.06 645.62 821.1C640.23 831.26 630.56 849.76 623.94 862.49L612.06 885.39H582.18C565.77 885.39 552.3 884.9 552.3 884.29Z" fill="#04B09A"/>
<path d="M564.54 720.32C564.54 719.83 565.03 718.85 565.64 718.24C566.25 717.51 574.46 702.2 583.89 683.95C640.83 574.1 685.53 488.01 698.64 462.91C706.84 447.11 718.97 423.84 725.46 411.23C734.03 394.82 737.95 388.21 739.54 388.21C741.13 388.21 748.48 401.93 768.07 441.73C782.52 471.24 811.91 530.64 833.22 573.62C859.3 626.52 871.43 652.36 870.69 653.34C869.96 654.2 861.14 655.42 849.01 656.28C837.62 657.14 820.72 658.61 811.29 659.59C801.86 660.45 790.59 661.3 786.19 661.3H778.23L758.76 620.28C741.62 584.28 738.92 579.26 736.47 579.26C734.02 579.26 731.45 583.55 718.1 609.63C682.34 679.19 681.12 681.51 678.79 682C677.57 682.24 675.97 682.86 675.36 683.35C674.63 683.96 669.36 685.8 663.73 687.39C657.97 689.1 650.87 691.43 647.81 692.53C644.75 693.63 640.34 694.98 638.01 695.59C632.87 696.94 605.07 706.61 598.33 709.43C595.76 710.65 592.57 711.51 591.23 711.51C590.01 711.51 584.37 713.71 578.98 716.41C569.31 721.06 564.53 722.41 564.53 720.33L564.54 720.32Z" fill="#04B09A"/>
<path d="M952.749 672.8C949.929 671.21 950.549 671.09 959.489 671.21C971.489 671.33 977.979 673.29 966.589 673.41C962.429 673.53 958.389 673.78 957.409 674.02C956.549 674.26 954.469 673.78 952.759 672.8H952.749Z" fill="#043F9B"/>
<path d="M816.449 411.84C813.509 409.02 817.059 379.51 822.329 362.12L826.249 348.89L822.209 344.85C816.819 339.46 816.329 331.62 821.109 326.48C822.699 324.77 824.659 323.3 825.399 323.3C826.129 323.3 826.619 315.1 826.619 299.05V274.68L831.149 273.33C833.599 272.6 836.049 272.23 836.659 272.6C837.149 272.97 837.639 283.99 837.639 297.21V321.21L841.929 325.86C848.049 332.72 847.689 338.96 840.579 346.56L837.759 349.62L840.819 359.42C845.349 373.5 847.309 385.75 847.429 400.2V412.69H832.369C824.039 412.69 816.819 412.32 816.449 411.83V411.84Z" fill="#043F9B"/>
<path d="M540.42 359.181C537.6 357.341 537.6 356.981 537.6 329.421V301.621L548.5 296.601C578.26 282.641 607.89 276.881 648.92 276.761C669.49 276.761 686.76 278.841 705.99 283.621C719.09 286.931 739.54 294.641 747.63 299.171L752.53 301.991V329.301V356.731L749.47 359.061L746.29 361.391L734.78 355.881C721.31 349.511 706.86 345.101 687.75 341.551C671.22 338.491 632.15 337.021 619.78 338.981C615.37 339.711 607.29 340.941 601.9 341.671C592.47 342.891 583.9 345.221 582.18 346.941C581.69 347.431 579.49 347.801 577.28 347.801C575.08 347.801 572.87 348.411 572.5 349.021C572.13 349.751 570.66 350.241 569.44 350.241C567.24 350.241 561.6 352.691 552.3 357.471C545.69 360.901 543.36 361.271 540.42 359.181Z" fill="#0962C3"/>
</g>
<defs>
<clipPath id="clip0_4027_145">
<rect width="1254" height="1254" rx="627" fill="white"/>
</clipPath>
</defs>
</svg>
